<svg width="128" height="35" viewBox="0 0 128 35" fill="none" xmlns="http://www.w3.org/2000/svg">
<path d="M0 33.8744H4.61388C5.69673 32.8033 6.29701 32.203 7.37986 31.1319V0.400169H2.76598C1.68313 1.47125 1.08285 2.07153 0 3.14849V33.8744Z" fill="#00FFA5"/>
<path d="M28.5366 29.6489L13.5121 17.1373L28.5366 4.62564V0.400169H22.2749L9.79274 10.7932V23.4814L22.2749 33.8744H28.5366V29.6489Z" fill="#00FFA5"/>
<path d="M25.9119 17.049C26.0532 17.049 26.165 17.0019 26.2592 16.9137C26.3533 16.8195 26.4004 16.7077 26.4004 16.5664C26.4004 16.4252 26.3533 16.3193 26.265 16.231C26.1768 16.1486 26.0649 16.1015 25.9355 16.1015H25.194V17.0431H25.9119V17.049ZM24.682 15.6189H25.9355C26.2121 15.6189 26.4475 15.7131 26.6299 15.9014C26.8182 16.0897 26.9065 16.3134 26.9065 16.5723C26.9065 16.7724 26.8535 16.949 26.7417 17.102C26.6299 17.255 26.4828 17.3668 26.2945 17.4374L26.9654 18.4967H26.3651L25.753 17.508H25.194V18.4967H24.682V15.6248V15.6189ZM25.6589 19.2794C26.0826 19.2794 26.4592 19.1853 26.7829 18.9911C27.1066 18.7969 27.3538 18.5379 27.5303 18.2084C27.701 17.8788 27.7893 17.5198 27.7893 17.1255C27.7893 16.7312 27.701 16.3722 27.5244 16.0368C27.3479 15.7013 27.0948 15.4365 26.7712 15.2423C26.4475 15.0481 26.0767 14.948 25.6589 14.948C25.241 14.948 24.8703 15.0481 24.5466 15.2482C24.2229 15.4483 23.9699 15.7131 23.7933 16.0486C23.6168 16.384 23.5285 16.743 23.5285 17.1255C23.5285 17.508 23.6168 17.8788 23.7874 18.2084C23.964 18.5379 24.2112 18.7969 24.5348 18.9911C24.8585 19.1794 25.2352 19.2794 25.6589 19.2794ZM25.6589 19.6679C25.1469 19.6679 24.6996 19.556 24.3171 19.3206C23.9287 19.0911 23.6344 18.7851 23.4167 18.3967C23.2048 18.0083 23.0989 17.5846 23.0989 17.1255C23.0989 16.6665 23.2048 16.2192 23.4226 15.8249C23.6403 15.4365 23.9404 15.1305 24.3347 14.9069C24.7232 14.6832 25.1645 14.5714 25.6589 14.5714C26.1532 14.5714 26.5946 14.6832 26.983 14.9127C27.3714 15.1423 27.6775 15.4483 27.8952 15.8367C28.1129 16.2251 28.2189 16.6547 28.2189 17.1255C28.2189 17.5963 28.1129 18.02 27.8952 18.4085C27.6775 18.7969 27.3773 19.1029 26.983 19.3265C26.5946 19.5502 26.1532 19.6679 25.6589 19.6679Z" fill="#00FFA5"/>
<path d="M32.6915 33.892H33.8979V0.441383L56.473 33.892H59.0742V0.394302H57.8678V33.845L35.3457 0.394302H32.6915V33.892ZM64.4237 33.892H65.6302V19.7738H77.3473L86.6575 33.892H88.1523L78.8892 19.7738C83.7149 19.3913 87.858 15.8955 87.858 10.0105C87.858 4.93757 84.7684 0.394302 78.3066 0.394302H64.4178V33.892H64.4237ZM65.6302 18.6262V1.54189H78.3125C84.0975 1.54189 86.6575 5.56138 86.6575 10.0576C86.6575 15.513 82.7027 18.6262 77.3473 18.6262H65.6302Z" fill="white"/>
<path d="M120.538 25.141C119.184 27.5656 117.33 29.49 114.965 30.9142C112.599 32.3384 109.968 33.0446 107.073 33.0446C104.177 33.0446 101.488 32.3266 99.1102 30.8907C96.7268 29.4547 94.8671 27.5244 93.5371 25.0939C92.2012 22.6692 91.5362 20.0151 91.5362 17.1432C91.5362 14.2713 92.213 11.5641 93.5665 9.12184C94.9201 6.67954 96.7856 4.74924 99.1632 3.32506C101.547 1.90676 104.183 1.19467 107.079 1.19467C109.974 1.19467 112.605 1.91264 114.97 3.3486C117.336 4.78455 119.196 6.71485 120.544 9.14538C121.35 10.5931 121.915 12.1291 122.239 13.7534H123.51C123.162 11.9055 122.515 10.1517 121.579 8.50391C120.085 5.8674 118.054 3.79586 115.5 2.27752C112.94 0.759172 110.133 0 107.079 0C104.024 0 101.117 0.765057 98.557 2.30106C95.997 3.83117 93.9785 5.9086 92.5013 8.52745C91.0183 11.1463 90.2827 14.0182 90.2827 17.1491C90.2827 20.2799 91.0124 23.1047 92.4778 25.7236C93.9432 28.3424 95.9558 30.4199 98.51 31.95C101.064 33.4801 103.924 34.251 107.079 34.251C110.233 34.251 113.04 33.486 115.6 31.95C118.16 30.4199 120.167 28.3424 121.632 25.7236C122.562 24.064 123.192 22.3044 123.533 20.4506H122.262C121.938 22.1043 121.368 23.6697 120.549 25.1468" fill="white"/>
<path d="M128 16.5488H105.731V17.6905H128V16.5488Z" fill="white"/>
</svg>
